# xmcd
#
# Track frame offsets:
#	150
#	19099
#	40011
#	60618
#	79580
#	103021
#	123051
#	141476
#	156238
#	180301
#
# Disc length: 2667 seconds
#
# Revision: 1
# Processed by: cddbd v1.5.2PL0 Copyright (c) Steve Scherf et al.
# Submitted via: EZCDAudioConverter 8.0.2.1
#
DISCID=770a690a
DTITLE=Ngọc Hương - Rừng Thu
DYEAR=1995
DGENRE=Contemporary Pop
TTITLE0=Rừng Thu
TTITLE1=Vết thương tình yêu
TTITLE2=Vắng nàng
TTITLE3=Đêm ru tình nhớ
TTITLE4=Tình vẫn thiết tha
TTITLE5=Ngày mai ta có nhau
TTITLE6=Thuyền tình
TTITLE7=Nụ hôn bên anh
TTITLE8=Chuyện tình dang dở
TTITLE9=Giấc mơ thời gian
EXTD=
EXTT0=
EXTT1=
EXTT2=
EXTT3=
EXTT4=
EXTT5=
EXTT6=
EXTT7=
EXTT8=
EXTT9=
PLAYORDER=
